<svg t="1717128476443" class="icon" viewBox="0 0 1024 1024" version="1.1" xmlns="http://www.w3.org/2000/svg" p-id="1804" width="200" height="200"><path d="M512 53.333333a245.333333 245.333333 0 1 0 0 490.666667 245.333333 245.333333 0 0 0 0-490.666667z m0 64a181.333333 181.333333 0 1 1 0 362.666667 181.333333 181.333333 0 0 1 0-362.666667zM512 608c43.221333 0 85.76 5.76 126.293333 16.938667a32 32 0 1 1-17.066666 61.696A411.349333 411.349333 0 0 0 512 672c-185.984 0-334.506667 120.96-334.506667 266.666667a32 32 0 1 1-64 0c0-184.32 179.754667-330.666667 398.506667-330.666667z" fill="#e6e6e6" p-id="1805"></path><path d="M768 565.333333a202.709333 202.709333 0 0 0-126.592 44.544A201.386667 201.386667 0 0 0 565.333333 768c0 37.376 10.325333 73.557333 29.525334 104.704A201.130667 201.130667 0 0 0 768 970.666667c50.176 0 97.28-18.176 133.632-50.901334 15.274667-12.8 29.141333-29.269333 39.936-47.786666 18.773333-30.421333 29.098667-66.56 29.098667-103.978667A202.624 202.624 0 0 0 768 565.333333z m0 64A138.624 138.624 0 0 1 906.666667 768a135.253333 135.253333 0 0 1-19.968 71.082667c-7.509333 12.8-16.597333 23.637333-27.050667 32.426666A135.424 135.424 0 0 1 768 906.666667a137.386667 137.386667 0 0 1-118.4-67.114667A135.765333 135.765333 0 0 1 629.333333 768a137.386667 137.386667 0 0 1 51.882667-108.032A138.794667 138.794667 0 0 1 768 629.333333z" fill="#e6e6e6" p-id="1806"></path><path d="M812.8 702.72a32 32 0 0 1 46.72 43.52l-3.242667 3.413333-90.88 84.053334a32 32 0 0 1-40.533333 2.432l-3.84-3.285334-42.24-42.24a32 32 0 0 1 41.685333-48.341333l3.584 3.114667 20.48 20.437333 68.266667-63.146667z" fill="#e6e6e6" p-id="1807"></path></svg>