<svg t="1717127808579" class="icon" viewBox="0 0 1024 1024" version="1.1" xmlns="http://www.w3.org/2000/svg" p-id="1335" width="200" height="200"><path d="M512 53.333333a245.333333 245.333333 0 1 0 0 490.666667 245.333333 245.333333 0 0 0 0-490.666667z m0 64a181.333333 181.333333 0 1 1 0 362.666667 181.333333 181.333333 0 0 1 0-362.666667zM512 608c43.221333 0 85.76 5.76 126.293333 16.938667a32 32 0 1 1-17.066666 61.696A411.349333 411.349333 0 0 0 512 672c-186.026667 0-334.506667 120.96-334.506667 266.666667a32 32 0 1 1-64 0c0-184.32 179.754667-330.666667 398.506667-330.666667z" fill="#e6e6e6" p-id="1336"></path><path d="M768 565.333333A202.410667 202.410667 0 0 0 565.333333 768c0 37.376 10.325333 73.557333 29.525334 104.704 9.898667 16.853333 23.210667 32.768 38.698666 46.208A198.656 198.656 0 0 0 768 970.666667a201.386667 201.386667 0 0 0 173.44-98.432c10.581333-17.152 18.730667-37.12 23.338667-57.514667 3.84-14.293333 5.888-30.293333 5.888-46.72a201.941333 201.941333 0 0 0-52.181334-135.338667A200.064 200.064 0 0 0 768 565.333333z m0 64c40.064 0 77.312 16.981333 102.656 45.866667A138.24 138.24 0 0 1 906.666667 768c0 10.88-1.365333 21.333333-4.053334 31.445333a129.962667 129.962667 0 0 1-15.914666 39.637334A137.6 137.6 0 0 1 768 906.666667c-34.688 0-66.986667-12.8-91.904-35.584a126.890667 126.890667 0 0 1-26.453333-31.402667A135.936 135.936 0 0 1 629.333333 768 138.410667 138.410667 0 0 1 768 629.333333z" fill="#e6e6e6" p-id="1337"></path><path d="M789.333333 700.16a32 32 0 0 1 48.341334 41.642667l-3.114667 3.584-90.026667 90.026666a32 32 0 0 1-48.341333-41.642666l3.114667-3.584 90.026666-90.026667z" fill="#e6e6e6" p-id="1338"></path><path d="M700.074667 701.013333a32 32 0 0 1 41.685333-3.157333l3.584 3.072 90.453333 90.026667a32 32 0 0 1-41.557333 48.469333l-3.584-3.072-90.453333-90.026667a32 32 0 0 1-0.128-45.269333z" fill="#e6e6e6" p-id="1339"></path></svg>