<svg t="1717128769604" class="icon" viewBox="0 0 1024 1024" version="1.1" xmlns="http://www.w3.org/2000/svg" p-id="2462" width="200" height="200"><path d="M298.666667 970.666667c-188.16 0-245.333333-57.173333-245.333334-245.333334V298.666667c0-188.16 57.173333-245.333333 245.333334-245.333334h64c74.666667 0 98.133333 24.32 128 64l64 85.333334c14.08 18.773333 16.213333 21.333333 42.666666 21.333333h128c188.16 0 245.333333 57.173333 245.333334 245.333333v256c0 188.16-57.173333 245.333333-245.333334 245.333334H298.666667zM117.333333 298.666667v426.666666c0 152.32 29.013333 181.333333 181.333334 181.333334h426.666666c152.32 0 181.333333-29.013333 181.333334-181.333334v-256c0-152.32-29.013333-181.333333-181.333334-181.333333h-128c-54.613333 0-72.533333-18.773333-93.866666-46.933333l-64-85.333334c-22.186667-29.44-28.586667-38.4-76.8-38.4H298.666667c-152.32 0-181.333333 29.013333-181.333334 181.333334z" fill="#292D32" p-id="2463"></path></svg>