<svg t="1717128797399" class="icon" viewBox="0 0 1024 1024" version="1.1" xmlns="http://www.w3.org/2000/svg" p-id="2616" width="200" height="200"><path d="M764.16 117.333333c43.178667 0 78.08 34.986667 78.08 78.08l-0.298667 6.613334a78.421333 78.421333 0 0 1-68.565333 70.997333l-5.077333 0.341333-1.194667-0.128a58.837333 58.837333 0 0 0-6.314667 0l-1.28 0.128 1.536 0.128a77.781333 77.781333 0 0 1-74.965333-78.08c0-43.349333 34.730667-78.08 78.08-78.08z m-5.418667 220.16l4.906667-0.384 5.546667 0.384a142.464 142.464 0 0 0 137.045333-141.866666 142.122667 142.122667 0 1 0-284.16-0.213334l0.213333 7.893334a141.781333 141.781333 0 0 0 136.448 134.186666zM717.226667 377.642667c67.669333-11.861333 140.8 0.810667 192.682666 35.2 79.146667 52.778667 79.146667 146.389333 0.042667 199.125333-51.242667 34.346667-123.477333 47.061333-191.189333 35.712a32 32 0 1 1 10.581333-63.146667c52.394667 8.832 108.074667-0.981333 145.066667-25.770666 41.173333-27.434667 41.173333-65.237333 0.042666-92.629334-37.376-24.832-93.952-34.56-146.176-25.429333a32 32 0 1 1-11.008-63.061333zM258.56 117.333333c43.349333 0 78.08 34.730667 78.08 78.08l-0.256 6.272A77.781333 77.781333 0 0 1 267.861333 273.066667l-4.693333 0.341333-1.28-0.128a58.837333 58.837333 0 0 0-6.272 0l-1.28 0.128 1.536 0.128A78.464 78.464 0 0 1 180.48 195.2c0-42.88 34.901333-77.866667 78.08-77.866667z m-4.992 220.16l4.864-0.384 5.546667 0.384A141.781333 141.781333 0 0 0 400.64 195.413333a141.781333 141.781333 0 0 0-142.08-142.08 142.08 142.08 0 0 0-142.08 142.08l0.256 7.893334A142.421333 142.421333 0 0 0 253.568 337.493333zM112.853333 412.8C164.693333 378.453333 237.824 365.781333 305.493333 377.642667a32 32 0 0 1-11.008 63.061333c-52.266667-9.173333-108.8 0.597333-146.133333 25.386667-41.173333 27.434667-41.173333 65.237333 0.042667 92.714666 36.949333 24.746667 92.586667 34.56 145.024 25.728a32 32 0 0 1 10.581333 63.146667c-67.754667 11.349333-139.946667-1.365333-191.146667-35.669333-79.146667-52.778667-79.146667-146.389333 0.042667-199.210667z" fill="#292D32" p-id="2617"></path><path d="M508.16 436.053333c43.178667 0 78.08 34.986667 78.08 78.08l-0.298667 6.314667a78.165333 78.165333 0 0 1-68.693333 71.338667l-4.778667 0.341333-1.365333-0.170667a58.837333 58.837333 0 0 0-6.314667 0l-1.28 0.128 1.536 0.128a77.781333 77.781333 0 0 1-74.965333-78.08c0-43.349333 34.730667-78.08 78.08-78.08z m-5.418667 220.16l4.864-0.384 5.333334 0.384c76.16-2.218667 136.746667-64.981333 137.301333-141.866666a142.122667 142.122667 0 1 0-284.16-0.213334l0.213333 7.893334a141.781333 141.781333 0 0 0 136.448 134.144zM370.090667 731.989333c-79.146667 52.778667-79.146667 146.389333 0 199.168 78.976 52.821333 204.8 52.821333 283.861333 0 79.104-52.778667 79.104-146.389333-0.042667-199.168-75.648-50.432-195.456-52.309333-274.773333-5.632l-9.045333 5.632z m248.32 53.248c41.173333 27.434667 41.173333 65.237333 0 92.672-57.557333 38.485333-155.306667 38.485333-212.778667 0-39.338667-26.197333-41.130667-61.824-5.461333-88.832l5.333333-3.797333c57.557333-38.101333 155.818667-38.101333 212.906667-0.042667z" fill="#292D32" p-id="2618"></path></svg>