<svg t="1717128750011" class="icon" viewBox="0 0 1024 1024" version="1.1" xmlns="http://www.w3.org/2000/svg" p-id="2308" width="200" height="200"><path d="M512 53.333333a245.333333 245.333333 0 1 0 0 490.666667 245.333333 245.333333 0 0 0 0-490.666667z m0 64a181.333333 181.333333 0 1 1 0 362.666667 181.333333 181.333333 0 0 1 0-362.666667zM512 608c218.752 0 398.506667 146.346667 398.506667 330.666667a32 32 0 0 1-64 0c0-145.706667-148.522667-266.666667-334.506667-266.666667-186.026667 0-334.506667 120.96-334.506667 266.666667a32 32 0 1 1-64 0c0-184.32 179.754667-330.666667 398.506667-330.666667z" fill="#292D32" p-id="2309"></path></svg>