<svg t="1717128825090" class="icon" viewBox="0 0 1024 1024" version="1.1" xmlns="http://www.w3.org/2000/svg" p-id="2773" width="200" height="200"><path d="M644.693333 950.186667c-189.44 0-280.746667-74.666667-296.533333-241.92-1.706667-17.493333 11.093333-33.28 29.013333-34.986667 17.066667-1.706667 33.28 11.52 34.986667 29.013333 12.373333 133.973333 75.52 183.893333 232.96 183.893334h5.546667c173.653333 0 235.093333-61.44 235.093333-235.093334V372.906667c0-173.653333-61.44-235.093333-235.093333-235.093334h-5.546667c-158.293333 0-221.44 50.773333-232.96 187.306667-2.133333 17.493333-17.066667 30.72-34.986667 29.013333a32.042667 32.042667 0 0 1-29.44-34.56c14.506667-169.813333 106.24-245.76 296.96-245.76h5.546667c209.493333 0 299.093333 89.6 299.093333 299.093334v278.186666c0 209.493333-89.6 299.093333-299.093333 299.093334h-5.546667z" fill="#292D32" p-id="2774"></path><path d="M154.453333 544c-17.493333 0-32-14.506667-32-32s14.506667-32 32-32H640c17.493333 0 32 14.506667 32 32s-14.506667 32-32 32H154.453333z" fill="#292D32" p-id="2775"></path><path d="M226.986667 677.546667l-142.933334-142.933334a32.170667 32.170667 0 0 1 0-45.226666l142.933334-142.933334c12.373333-12.373333 32.853333-12.373333 45.226666 0 12.373333 12.373333 12.373333 32.853333 0 45.226667L151.893333 512l120.32 120.32c12.373333 12.373333 12.373333 32.853333 0 45.226667-5.973333 6.4-14.506667 9.386667-22.613333 9.386666s-16.213333-2.986667-22.613333-9.386666z" fill="#292D32" p-id="2776"></path></svg>